<?xml version="1.0" encoding="UTF-8" ?>
<!DOCTYPE svg PUBLIC "-//W3C//DTD SVG 1.1//EN" "http://www.w3.org/Graphics/SVG/1.1/DTD/svg11.dtd">
<svg width="1280pt" height="720pt" viewBox="0 0 1280 720" version="1.1" xmlns="http://www.w3.org/2000/svg">
<g id="#ff0066ff">
<path fill="#ff0066" opacity="1.00" d=" M 0.00 0.00 L 1280.00 0.00 L 1280.00 720.00 L 0.00 720.00 L 0.00 0.00 M 821.10 187.44 C 819.08 187.84 816.83 187.85 815.15 189.16 C 814.14 190.63 813.97 192.47 813.63 194.17 C 809.40 219.83 805.13 245.49 800.90 271.15 C 792.24 272.52 783.59 273.86 774.93 275.19 C 779.83 246.54 786.28 218.18 793.54 190.05 C 794.65 187.55 793.27 183.50 789.99 184.27 C 780.56 185.60 771.25 187.72 761.87 189.34 C 757.41 184.67 751.22 182.21 744.85 181.73 C 727.94 180.03 711.20 184.42 695.01 188.80 C 693.14 189.50 690.70 189.60 689.48 191.37 C 685.51 219.00 680.51 246.52 675.21 273.93 C 676.04 245.51 678.78 217.18 682.08 188.95 C 682.87 186.30 681.10 182.99 678.00 183.66 C 665.99 185.56 654.05 187.86 642.05 189.83 C 639.82 190.24 637.52 190.50 635.43 191.42 C 634.28 192.75 633.86 194.51 633.36 196.15 C 631.60 202.63 629.83 209.10 628.05 215.58 C 628.40 206.99 629.70 198.47 630.21 189.90 C 630.73 187.56 628.43 185.20 626.08 185.85 C 612.63 187.85 599.23 190.23 585.79 192.32 C 584.04 192.76 581.54 192.82 580.88 194.87 C 580.04 196.89 579.71 199.07 579.22 201.20 C 574.37 224.46 568.38 247.48 561.26 270.15 C 561.97 242.34 564.31 214.54 568.76 187.07 C 568.85 185.07 569.82 182.45 567.99 180.95 C 566.82 179.45 564.79 180.21 563.21 180.30 C 545.82 183.27 528.39 186.06 511.01 189.10 C 507.66 189.45 507.36 193.34 506.53 195.86 C 501.41 215.36 495.38 234.59 489.49 253.86 C 486.75 247.25 479.97 243.26 472.97 242.91 C 462.67 241.57 452.73 246.04 442.47 245.10 C 443.27 239.03 447.64 233.87 453.14 231.42 C 454.39 231.12 456.78 229.62 457.13 231.79 C 457.98 234.46 457.57 239.61 461.77 238.89 C 470.62 236.02 479.16 232.23 487.93 229.10 C 490.31 228.49 492.11 226.58 492.01 224.03 C 492.89 213.54 493.93 202.33 489.57 192.43 C 486.97 186.28 480.66 182.02 473.95 182.25 C 463.11 182.49 453.64 188.81 445.48 195.37 C 435.26 203.85 426.41 213.88 418.43 224.46 C 411.25 234.36 404.89 245.27 402.65 257.45 C 401.81 262.20 401.82 267.37 404.20 271.71 C 406.97 276.77 412.42 280.12 418.17 280.50 C 430.77 282.00 442.84 274.99 455.39 277.21 C 451.77 282.79 444.97 284.83 438.93 286.64 C 433.81 288.22 428.60 286.35 424.14 283.87 C 422.15 282.47 419.68 284.03 418.99 286.08 C 414.50 295.62 410.03 305.18 405.84 314.86 C 405.09 316.82 403.62 319.56 405.80 321.16 C 417.48 328.77 433.14 329.08 445.33 322.43 C 455.39 317.04 464.74 310.17 472.45 301.71 C 470.06 308.23 467.39 314.64 465.19 321.23 C 464.06 323.62 466.38 326.49 468.96 325.91 C 480.58 324.36 492.16 322.36 503.77 320.71 C 505.75 320.23 508.60 320.27 509.25 317.88 C 510.79 313.32 511.50 308.53 512.75 303.88 C 514.46 303.58 516.17 303.27 517.89 302.96 C 517.24 308.98 516.20 314.98 515.84 321.03 C 515.64 323.12 517.80 325.03 519.85 324.42 C 527.80 322.84 535.68 320.85 543.57 318.94 C 543.41 321.31 543.69 324.95 546.96 324.66 C 559.38 323.28 571.76 321.43 584.14 319.72 C 586.30 319.63 587.65 317.87 588.00 315.86 C 592.38 299.26 596.61 282.61 600.99 266.00 C 599.22 286.71 596.56 307.34 594.60 328.03 C 593.99 330.55 596.49 332.89 598.97 332.15 C 605.31 331.36 611.65 330.53 617.95 329.51 C 620.15 329.37 621.10 327.28 621.56 325.41 C 625.92 309.40 630.12 293.35 634.57 277.37 C 633.58 290.58 632.31 303.78 631.40 317.00 C 630.81 319.68 633.52 321.70 636.00 320.92 C 646.54 319.31 657.02 317.27 667.53 315.44 C 667.40 318.19 665.88 322.32 669.37 323.63 C 673.64 323.73 677.64 321.71 681.78 320.82 C 687.76 319.06 693.87 317.69 699.80 315.74 C 702.40 315.18 702.53 312.21 702.81 310.08 C 703.94 297.94 705.98 285.91 707.99 273.88 C 722.38 264.50 736.26 254.04 747.72 241.14 C 743.26 266.72 738.85 292.30 734.37 317.87 C 734.18 319.51 733.75 321.56 735.13 322.84 C 736.75 324.44 739.15 323.47 741.06 323.09 C 758.48 318.37 776.12 314.38 794.03 312.06 C 793.70 315.30 792.45 318.63 793.20 321.87 C 794.21 324.10 796.85 323.92 798.84 323.33 C 819.34 318.06 840.13 313.61 861.22 311.52 C 863.33 311.58 865.29 310.05 865.30 307.84 C 866.13 296.90 866.96 285.95 867.59 275.00 C 868.09 272.52 865.58 270.61 863.28 271.17 C 853.89 272.39 844.53 273.89 835.16 275.24 C 835.57 272.85 835.99 270.46 836.41 268.08 C 845.54 265.96 854.80 264.45 864.02 262.75 C 866.01 262.36 868.93 261.68 868.85 259.10 C 869.58 251.09 870.00 243.04 870.47 235.01 C 871.04 232.43 868.63 229.96 866.05 230.85 C 858.23 232.24 850.52 234.17 842.74 235.71 C 843.58 231.52 844.56 227.35 845.62 223.20 C 854.73 221.79 863.90 220.75 873.09 219.84 C 875.17 219.65 878.24 219.34 878.47 216.65 C 879.57 205.74 880.09 194.77 880.91 183.83 C 881.48 181.45 879.55 178.75 876.97 179.34 C 858.33 181.86 839.74 184.84 821.10 187.44 M 882.09 400.43 C 864.09 403.48 846.02 406.14 828.04 409.26 C 825.07 409.53 824.50 412.70 823.84 415.04 C 819.72 430.91 815.19 446.68 810.22 462.32 C 813.75 445.14 817.73 428.05 821.99 411.04 C 822.21 409.21 823.34 406.90 821.88 405.32 C 820.34 403.16 817.52 404.31 815.39 404.53 C 805.30 406.46 795.12 407.94 785.06 409.98 C 782.46 410.23 781.79 412.94 781.51 415.09 C 779.88 425.61 778.23 436.13 776.57 446.65 C 776.14 434.43 775.91 422.20 776.40 409.99 C 776.28 408.26 776.87 406.04 775.24 404.85 C 773.79 403.35 771.64 404.30 769.89 404.45 C 760.26 406.31 750.64 408.17 741.00 409.96 C 739.03 410.49 736.10 410.62 735.71 413.15 C 734.48 417.52 734.12 422.08 733.39 426.55 C 733.43 420.90 733.74 414.59 729.87 409.97 C 724.50 403.17 715.25 401.70 707.11 401.34 C 689.60 400.77 672.97 407.18 655.94 410.18 C 654.19 410.62 651.56 410.90 651.18 413.07 C 647.79 440.55 643.97 468.01 639.78 495.39 C 640.41 466.14 643.41 437.00 646.68 407.95 C 647.40 405.25 644.74 402.74 642.09 403.64 C 628.06 405.94 614.03 408.29 600.02 410.69 C 597.18 410.66 596.04 413.29 595.10 415.49 C 595.54 412.99 596.10 410.45 595.74 407.91 C 594.58 405.00 591.33 405.78 588.91 406.13 C 574.79 408.45 560.61 410.44 546.51 412.86 C 543.49 413.22 543.19 416.70 542.61 419.04 C 537.00 445.53 530.38 471.83 522.00 497.58 C 525.92 470.65 532.17 444.11 538.39 417.63 C 539.10 413.82 540.82 410.05 540.47 406.13 C 539.11 403.14 535.62 404.15 533.13 404.58 C 523.15 406.53 513.06 407.94 503.12 410.02 C 500.85 410.26 500.06 412.58 499.76 414.50 C 495.83 436.87 491.94 459.24 487.97 481.60 C 486.21 482.43 484.45 483.26 482.70 484.11 C 487.08 458.84 493.09 433.88 499.14 408.98 C 500.20 406.45 497.78 403.18 495.02 404.12 C 484.26 405.89 473.54 407.83 462.82 409.79 C 462.52 408.20 462.97 406.31 461.84 404.98 C 460.18 403.64 457.99 404.13 456.08 404.40 C 445.92 406.13 435.74 407.78 425.57 409.41 C 423.56 409.64 421.70 410.45 420.04 411.58 C 421.10 408.78 421.33 403.72 417.05 404.07 C 406.71 405.49 396.44 407.40 386.14 409.04 C 385.85 407.29 386.17 405.31 385.24 403.75 C 383.81 401.72 381.09 402.75 379.05 402.76 C 354.00 405.68 328.91 408.29 303.88 411.30 C 301.44 411.29 300.27 413.79 300.65 415.95 C 301.28 427.24 302.06 438.52 302.71 449.81 C 302.75 451.76 303.54 454.38 305.91 454.42 C 310.86 454.06 315.72 452.93 320.62 452.21 C 315.81 479.75 311.14 507.32 306.30 534.86 C 305.91 537.50 305.13 540.17 305.54 542.86 C 306.62 544.80 308.95 545.04 310.89 544.43 C 320.47 542.17 330.01 539.72 339.61 537.49 C 341.28 537.00 343.15 536.74 344.53 535.59 C 346.03 533.54 345.86 530.82 346.29 528.43 C 349.19 501.03 354.34 473.93 360.49 447.10 C 364.37 446.76 368.26 446.47 372.15 446.19 C 366.93 477.52 361.52 508.82 356.42 540.17 C 355.71 542.47 357.53 545.12 360.04 544.70 C 366.06 543.71 371.91 541.89 377.88 540.61 C 384.09 538.96 390.52 537.99 396.55 535.68 C 398.54 523.57 399.39 511.28 401.45 499.16 C 402.75 498.87 404.06 498.59 405.37 498.31 C 403.08 511.22 401.05 524.17 398.76 537.08 C 398.56 539.23 397.61 541.74 399.06 543.67 C 400.72 545.44 403.23 544.51 405.26 544.13 C 416.00 541.41 426.84 539.10 437.53 536.23 C 437.46 538.70 435.79 542.02 438.08 543.96 C 439.69 545.46 441.90 544.37 443.65 543.76 C 455.97 538.76 468.21 533.58 480.30 528.05 C 479.61 532.37 478.48 536.62 478.10 540.98 C 477.58 543.66 480.69 545.48 483.02 544.52 C 491.32 542.52 499.58 540.30 507.84 538.13 C 507.56 540.23 506.02 542.67 507.65 544.56 C 509.65 546.42 512.54 545.41 514.94 545.25 C 527.57 543.37 540.33 542.37 552.87 540.02 C 556.44 527.64 558.64 514.91 561.70 502.40 C 560.42 517.98 558.28 533.50 556.94 549.08 C 556.43 551.39 558.73 553.55 561.01 552.99 C 568.52 552.22 576.04 551.35 583.50 550.18 C 586.03 549.88 586.54 547.06 587.06 545.04 C 589.61 533.66 592.42 522.33 594.80 510.91 C 594.89 520.32 593.21 529.65 592.98 539.04 C 592.93 541.50 595.87 542.60 597.94 541.99 C 609.63 540.10 621.31 538.11 632.99 536.15 C 632.81 538.95 630.93 543.97 635.02 544.78 C 652.23 546.25 670.11 543.71 685.49 535.53 C 698.83 528.40 711.12 518.68 719.59 506.02 C 717.04 519.95 714.70 533.92 712.31 547.88 C 711.47 550.24 713.00 553.82 715.93 553.14 C 725.67 550.82 735.22 547.74 744.91 545.24 C 746.99 544.48 750.22 544.21 750.63 541.51 C 751.77 534.60 752.11 527.57 753.00 520.62 C 755.46 527.30 757.50 534.15 760.26 540.72 C 761.11 542.61 762.54 545.31 765.06 544.68 C 771.18 543.44 777.16 541.54 783.21 539.97 C 783.07 541.82 781.77 544.05 783.20 545.70 C 784.66 547.56 787.18 546.80 789.18 546.63 C 800.77 544.90 812.37 543.21 823.97 541.57 C 825.59 541.11 827.82 541.29 828.90 539.78 C 831.56 534.83 830.83 528.58 834.15 523.90 C 834.13 530.29 832.30 536.55 832.43 542.93 C 832.77 545.56 835.85 545.83 837.91 545.17 C 849.89 542.55 861.88 539.98 873.84 537.26 C 873.76 539.88 872.70 543.77 876.10 544.73 C 879.55 544.69 882.81 543.38 886.13 542.62 C 894.42 540.34 902.86 538.62 911.03 535.95 C 910.90 538.63 909.12 542.24 911.76 544.24 C 914.43 545.49 917.39 543.87 920.11 543.40 C 939.11 538.45 958.43 534.63 977.96 532.50 C 979.93 532.49 981.53 530.93 981.53 528.94 C 982.57 517.27 983.41 505.57 984.29 493.88 C 984.94 491.30 982.64 488.81 980.02 489.53 C 971.42 490.59 962.88 492.15 954.30 493.35 C 959.22 465.51 965.54 437.95 972.37 410.52 C 972.60 408.75 973.54 406.49 971.91 405.12 C 970.75 403.41 968.52 404.19 966.83 404.33 C 956.65 406.19 946.44 407.86 936.27 409.77 C 935.87 408.19 936.33 406.20 935.04 404.97 C 933.67 403.30 931.35 404.31 929.55 404.41 C 919.35 406.34 909.08 407.89 898.90 409.89 C 896.75 410.09 895.41 411.89 895.22 413.93 C 890.18 442.42 885.63 471.00 880.43 499.45 C 881.22 468.50 883.22 437.52 888.23 406.94 C 888.33 405.08 889.13 402.84 887.78 401.25 C 886.31 399.63 883.97 400.20 882.09 400.43 Z" />
<path fill="#ff0066" opacity="1.00" d=" M 718.06 224.55 C 721.80 223.54 725.59 222.74 729.46 222.33 C 726.22 227.96 720.90 231.83 715.56 235.29 C 716.30 231.69 717.12 228.10 718.06 224.55 Z" />
<path fill="#ff0066" opacity="1.00" d=" M 520.81 272.56 C 520.99 269.89 521.69 267.30 522.49 264.77 C 522.20 267.41 521.87 270.10 520.81 272.56 Z" />
<path fill="#ff0066" opacity="1.00" d=" M 418.79 415.75 C 417.00 431.67 413.56 447.38 411.16 463.22 C 410.02 463.52 408.88 463.82 407.75 464.12 C 411.13 447.93 415.20 431.89 418.79 415.75 Z" />
<path fill="#ff0066" opacity="1.00" d=" M 710.61 465.09 C 720.35 456.66 728.51 446.02 732.00 433.46 C 729.67 447.73 726.98 461.95 724.75 476.24 C 722.27 470.30 716.79 466.40 710.61 465.09 Z" />
<path fill="#ff0066" opacity="1.00" d=" M 689.05 445.90 C 690.16 445.69 691.27 445.48 692.39 445.28 C 690.90 447.54 689.38 449.78 687.77 451.95 C 688.17 449.92 688.62 447.92 689.05 445.90 Z" />
<path fill="#ff0066" opacity="1.00" d=" M 448.75 469.20 C 447.26 483.00 444.04 496.55 442.21 510.31 C 443.51 496.48 446.49 482.88 448.75 469.20 Z" />
<path fill="#ff0066" opacity="1.00" d=" M 921.76 470.93 C 920.08 486.83 916.37 502.45 914.24 518.30 C 915.68 502.36 919.16 486.70 921.76 470.93 Z" />
<path fill="#ff0066" opacity="1.00" d=" M 679.39 493.07 C 683.26 492.24 687.17 491.53 691.15 491.43 C 687.81 495.49 683.03 497.83 678.27 499.79 C 678.63 497.55 679.01 495.31 679.39 493.07 Z" />
</g>
<g id="#000000ff">
<path fill="#000000" opacity="1.00" d=" M 821.10 187.44 C 839.74 184.84 858.33 181.86 876.97 179.34 C 879.55 178.75 881.48 181.45 880.91 183.83 C 880.09 194.77 879.57 205.74 878.47 216.65 C 878.24 219.34 875.17 219.65 873.09 219.84 C 863.90 220.75 854.73 221.79 845.62 223.20 C 844.56 227.35 843.58 231.52 842.74 235.71 C 850.52 234.17 858.23 232.24 866.05 230.85 C 868.63 229.96 871.04 232.43 870.47 235.01 C 870.00 243.04 869.58 251.09 868.85 259.10 C 868.93 261.68 866.01 262.36 864.02 262.75 C 854.80 264.45 845.54 265.96 836.41 268.08 C 835.99 270.46 835.57 272.85 835.16 275.24 C 844.53 273.89 853.89 272.39 863.28 271.17 C 865.58 270.61 868.09 272.52 867.59 275.00 C 866.96 285.95 866.13 296.90 865.30 307.84 C 865.29 310.05 863.33 311.58 861.22 311.52 C 840.13 313.61 819.34 318.06 798.84 323.33 C 796.85 323.92 794.21 324.10 793.20 321.87 C 792.45 318.63 793.70 315.30 794.03 312.06 C 776.12 314.38 758.48 318.37 741.06 323.09 C 739.15 323.47 736.75 324.44 735.13 322.84 C 733.75 321.56 734.18 319.51 734.37 317.87 C 738.85 292.30 743.26 266.72 747.72 241.14 C 736.26 254.04 722.38 264.50 707.99 273.88 C 705.98 285.91 703.94 297.94 702.81 310.08 C 702.53 312.21 702.40 315.18 699.80 315.74 C 693.87 317.69 687.76 319.06 681.78 320.82 C 677.64 321.71 673.64 323.73 669.37 323.63 C 665.88 322.32 667.40 318.19 667.53 315.44 C 657.02 317.27 646.54 319.31 636.00 320.92 C 633.52 321.70 630.81 319.68 631.40 317.00 C 632.31 303.78 633.58 290.58 634.57 277.37 C 630.12 293.35 625.92 309.40 621.56 325.41 C 621.10 327.28 620.15 329.37 617.95 329.51 C 611.65 330.53 605.31 331.36 598.97 332.15 C 596.49 332.89 593.99 330.55 594.60 328.03 C 596.56 307.34 599.22 286.71 600.99 266.00 C 596.61 282.61 592.38 299.26 588.00 315.86 C 587.65 317.87 586.30 319.63 584.14 319.72 C 571.76 321.43 559.38 323.28 546.96 324.66 C 543.69 324.95 543.41 321.31 543.57 318.94 C 535.68 320.85 527.80 322.84 519.85 324.42 C 517.80 325.03 515.64 323.12 515.84 321.03 C 516.20 314.98 517.24 308.98 517.89 302.96 C 516.17 303.27 514.46 303.58 512.75 303.88 C 511.50 308.53 510.79 313.32 509.25 317.88 C 508.60 320.27 505.75 320.23 503.77 320.71 C 492.16 322.36 480.58 324.36 468.96 325.91 C 466.38 326.49 464.06 323.62 465.19 321.23 C 467.39 314.64 470.06 308.23 472.45 301.71 C 464.74 310.17 455.39 317.04 445.33 322.43 C 433.14 329.08 417.48 328.77 405.80 321.16 C 403.62 319.56 405.09 316.82 405.84 314.86 C 410.03 305.18 414.50 295.62 418.99 286.08 C 419.68 284.03 422.15 282.47 424.14 283.87 C 428.60 286.35 433.81 288.22 438.93 286.64 C 444.97 284.83 451.77 282.79 455.39 277.21 C 442.84 274.99 430.77 282.00 418.17 280.50 C 412.42 280.12 406.97 276.77 404.20 271.71 C 401.82 267.37 401.81 262.20 402.65 257.45 C 404.89 245.27 411.25 234.36 418.43 224.46 C 426.41 213.88 435.26 203.85 445.48 195.37 C 453.64 188.81 463.11 182.49 473.95 182.25 C 480.66 182.02 486.97 186.28 489.57 192.43 C 493.93 202.33 492.89 213.54 492.01 224.03 C 492.11 226.58 490.31 228.49 487.93 229.10 C 479.16 232.23 470.62 236.02 461.77 238.89 C 457.57 239.61 457.98 234.46 457.13 231.79 C 456.78 229.62 454.39 231.12 453.14 231.42 C 447.64 233.87 443.27 239.03 442.47 245.10 C 452.73 246.04 462.67 241.57 472.97 242.91 C 479.97 243.26 486.75 247.25 489.49 253.86 C 495.38 234.59 501.41 215.36 506.53 195.86 C 507.36 193.34 507.66 189.45 511.01 189.10 C 528.39 186.06 545.82 183.27 563.21 180.30 C 564.79 180.21 566.82 179.45 567.99 180.95 C 569.82 182.45 568.85 185.07 568.76 187.07 C 564.31 214.54 561.97 242.34 561.26 270.15 C 568.38 247.48 574.37 224.46 579.22 201.20 C 579.71 199.07 580.04 196.89 580.88 194.87 C 581.54 192.82 584.04 192.76 585.79 192.32 C 599.23 190.23 612.63 187.85 626.08 185.85 C 628.43 185.20 630.73 187.56 630.21 189.90 C 629.70 198.47 628.40 206.99 628.05 215.58 C 629.83 209.10 631.60 202.63 633.36 196.15 C 633.86 194.51 634.28 192.75 635.43 191.42 C 637.52 190.50 639.82 190.24 642.05 189.83 C 654.05 187.86 665.99 185.56 678.00 183.66 C 681.10 182.99 682.87 186.30 682.08 188.95 C 678.78 217.18 676.04 245.51 675.21 273.93 C 680.51 246.52 685.51 219.00 689.48 191.37 C 690.70 189.60 693.14 189.50 695.01 188.80 C 711.20 184.42 727.94 180.03 744.85 181.73 C 751.22 182.21 757.41 184.67 761.87 189.34 C 771.25 187.72 780.56 185.60 789.99 184.27 C 793.27 183.50 794.65 187.55 793.54 190.05 C 786.28 218.18 779.83 246.54 774.93 275.19 C 783.59 273.86 792.24 272.52 800.90 271.15 C 805.13 245.49 809.40 219.83 813.63 194.17 C 813.97 192.47 814.14 190.63 815.15 189.16 C 816.83 187.85 819.08 187.84 821.10 187.44 M 820.70 194.61 C 815.30 227.39 809.79 260.15 804.42 292.93 C 804.06 294.24 803.98 295.92 802.71 296.72 C 800.82 298.68 797.05 296.75 797.27 294.10 C 797.37 288.95 798.07 283.82 798.40 278.67 C 789.27 279.98 780.20 281.70 771.04 282.74 C 768.33 283.35 766.46 280.35 767.31 277.96 C 772.26 249.08 778.51 220.44 785.78 192.06 C 777.49 193.54 769.23 195.28 760.91 196.62 C 757.60 197.25 756.29 193.41 753.96 191.87 C 749.04 188.47 742.72 188.31 736.95 188.27 C 722.97 188.64 709.26 191.94 695.88 195.80 C 690.15 235.91 681.94 275.61 674.85 315.49 C 681.83 313.55 688.81 311.63 695.80 309.71 C 697.03 297.04 699.00 284.45 701.24 271.92 C 701.59 268.87 704.86 267.74 707.00 266.10 C 723.31 255.18 739.35 242.82 750.22 226.20 C 751.10 224.92 752.13 223.40 753.94 223.72 C 756.62 223.78 757.69 226.80 756.94 229.05 C 751.98 257.90 746.92 286.74 741.93 315.59 C 757.84 311.48 773.88 307.69 790.19 305.55 C 793.41 305.15 796.68 304.44 799.94 304.93 C 803.36 307.50 800.72 312.17 800.63 315.60 C 819.73 311.04 838.96 306.65 858.55 304.82 C 859.22 296.09 859.83 287.37 860.43 278.64 C 850.97 279.93 841.54 281.51 832.07 282.70 C 829.75 283.35 826.89 281.64 827.40 279.01 C 828.06 274.23 828.93 269.46 829.97 264.75 C 830.20 262.69 832.23 261.88 834.00 261.49 C 843.33 259.31 852.78 257.64 862.20 255.90 C 862.54 250.08 862.94 244.26 863.32 238.45 C 855.20 240.08 847.16 242.12 839.00 243.48 C 836.88 244.06 834.57 242.18 835.02 239.96 C 835.76 233.90 837.23 227.96 838.64 222.04 C 839.21 219.93 839.71 216.95 842.39 216.64 C 852.17 214.99 862.05 214.01 871.91 212.91 C 872.49 204.21 873.14 195.52 873.76 186.83 C 856.07 189.41 838.39 192.05 820.70 194.61 M 513.85 195.68 C 502.78 237.22 489.26 278.07 473.72 318.14 C 483.57 316.67 493.41 315.17 503.25 313.65 C 504.46 308.99 505.21 304.20 506.76 299.64 C 507.29 297.82 509.41 297.61 510.96 297.20 C 514.62 296.52 518.26 295.54 521.99 295.25 C 523.92 295.01 525.60 297.00 525.28 298.88 C 524.88 304.80 523.88 310.66 523.28 316.57 C 530.19 314.94 537.12 313.37 544.03 311.70 C 546.30 311.20 548.59 310.56 550.95 310.78 C 553.44 311.96 552.92 314.83 552.51 317.04 C 562.15 315.61 571.83 314.42 581.48 313.05 C 589.58 281.69 597.79 250.35 605.89 218.99 C 606.36 217.59 606.57 215.75 608.10 215.06 C 610.51 213.23 613.89 216.22 613.15 218.93 C 609.49 254.20 605.65 289.45 601.90 324.70 C 606.24 324.13 610.58 323.53 614.93 322.94 C 622.40 295.15 629.92 267.36 637.40 239.57 C 637.85 237.71 638.80 235.45 641.07 235.45 C 643.45 235.29 645.06 237.74 644.59 239.94 C 642.68 264.43 640.61 288.91 638.61 313.40 C 648.37 311.70 658.13 309.99 667.88 308.25 C 667.43 269.16 670.12 230.10 674.78 191.30 C 663.27 193.30 651.77 195.32 640.26 197.31 C 634.81 216.85 629.51 236.44 623.95 255.95 C 623.29 259.90 616.91 258.98 617.28 255.07 C 618.91 234.51 621.12 213.98 622.93 193.43 C 610.88 195.36 598.84 197.34 586.79 199.31 C 580.65 228.99 572.83 258.33 563.13 287.05 C 561.89 290.30 561.44 294.19 558.70 296.60 C 555.75 297.73 553.12 294.94 553.74 292.03 C 554.20 257.16 556.00 222.21 561.55 187.74 C 545.65 190.39 529.75 193.05 513.85 195.68 M 464.45 191.48 C 455.18 195.53 447.59 202.47 440.48 209.51 C 431.03 219.22 422.26 229.77 415.72 241.70 C 412.09 248.60 409.17 256.20 409.19 264.10 C 409.33 269.61 414.53 273.74 419.84 273.72 C 431.37 273.99 442.39 268.70 453.97 269.88 C 457.72 270.17 461.70 272.90 461.76 276.97 C 462.21 281.99 457.98 285.70 454.05 287.99 C 445.08 293.16 433.87 296.49 423.96 291.90 C 420.08 300.26 416.15 308.62 412.51 317.09 C 421.42 321.27 432.04 321.27 440.87 316.85 C 456.43 308.99 470.08 296.81 478.42 281.38 C 482.54 273.75 485.07 264.62 482.57 256.07 C 481.35 252.50 477.59 250.66 474.10 250.10 C 463.97 248.36 454.11 252.76 444.01 252.21 C 440.00 252.16 436.00 249.23 435.76 245.04 C 435.50 238.71 439.42 233.08 443.99 229.06 C 448.01 225.53 453.49 222.74 458.96 224.05 C 461.99 224.87 463.26 228.00 464.52 230.54 C 471.39 227.87 478.29 225.27 485.18 222.63 C 485.92 214.46 486.49 206.04 484.23 198.05 C 483.29 194.45 480.98 190.76 477.18 189.73 C 472.91 188.59 468.42 189.85 464.45 191.48 Z" />
<path fill="#000000" opacity="1.00" d=" M 531.39 203.40 C 533.66 202.22 536.95 204.25 536.42 206.95 C 534.00 228.70 531.13 250.42 528.60 272.16 C 528.27 274.14 528.18 276.99 525.81 277.63 C 522.29 278.59 518.64 279.51 514.98 279.44 C 512.56 278.91 512.21 276.01 512.90 274.02 C 518.17 251.95 523.63 229.94 528.89 207.88 C 529.38 206.26 529.61 204.15 531.39 203.40 M 520.81 272.56 C 521.87 270.10 522.20 267.41 522.49 264.77 C 521.69 267.30 520.99 269.89 520.81 272.56 Z" />
<path fill="#000000" opacity="1.00" d=" M 722.24 216.31 C 726.93 215.28 734.08 214.46 736.17 220.07 C 737.22 224.94 733.49 229.12 730.48 232.48 C 725.37 237.62 719.13 241.51 712.67 244.71 C 710.23 246.44 706.44 244.00 707.44 241.03 C 708.65 234.01 709.87 226.89 712.15 220.13 C 714.62 217.46 718.89 217.36 722.24 216.31 M 718.06 224.55 C 717.12 228.10 716.30 231.69 715.56 235.29 C 720.90 231.83 726.22 227.96 729.46 222.33 C 725.59 222.74 721.80 223.54 718.06 224.55 Z" />
<path fill="#000000" opacity="1.00" d=" M 882.09 400.43 C 883.97 400.20 886.31 399.63 887.78 401.25 C 889.13 402.84 888.33 405.08 888.23 406.94 C 883.22 437.52 881.22 468.50 880.43 499.45 C 885.63 471.00 890.18 442.42 895.22 413.93 C 895.41 411.89 896.75 410.09 898.90 409.89 C 909.08 407.89 919.35 406.34 929.55 404.41 C 931.35 404.31 933.67 403.30 935.04 404.97 C 936.33 406.20 935.87 408.19 936.27 409.77 C 946.44 407.86 956.65 406.19 966.83 404.33 C 968.52 404.19 970.75 403.41 971.91 405.12 C 973.54 406.49 972.60 408.75 972.37 410.52 C 965.54 437.95 959.22 465.51 954.30 493.35 C 962.88 492.15 971.42 490.59 980.02 489.53 C 982.64 488.81 984.94 491.30 984.29 493.88 C 983.41 505.57 982.57 517.27 981.53 528.94 C 981.53 530.93 979.93 532.49 977.96 532.50 C 958.43 534.63 939.11 538.45 920.11 543.40 C 917.39 543.87 914.43 545.49 911.76 544.24 C 909.12 542.24 910.90 538.63 911.03 535.95 C 902.86 538.62 894.42 540.34 886.13 542.62 C 882.81 543.38 879.55 544.69 876.10 544.73 C 872.70 543.77 873.76 539.88 873.84 537.26 C 861.88 539.98 849.89 542.55 837.91 545.17 C 835.85 545.83 832.77 545.56 832.43 542.93 C 832.30 536.55 834.13 530.29 834.15 523.90 C 830.83 528.58 831.56 534.83 828.90 539.78 C 827.82 541.29 825.59 541.11 823.97 541.57 C 812.37 543.21 800.77 544.90 789.18 546.63 C 787.18 546.80 784.66 547.56 783.20 545.70 C 781.77 544.05 783.07 541.82 783.21 539.97 C 777.16 541.54 771.18 543.44 765.06 544.68 C 762.54 545.31 761.11 542.61 760.26 540.72 C 757.50 534.15 755.46 527.30 753.00 520.62 C 752.11 527.57 751.77 534.60 750.63 541.51 C 750.22 544.21 746.99 544.48 744.91 545.24 C 735.22 547.74 725.67 550.82 715.93 553.14 C 713.00 553.82 711.47 550.24 712.31 547.88 C 714.70 533.92 717.04 519.95 719.59 506.02 C 711.12 518.68 698.83 528.40 685.49 535.53 C 670.11 543.71 652.23 546.25 635.02 544.78 C 630.93 543.97 632.81 538.95 632.99 536.15 C 621.31 538.11 609.63 540.10 597.94 541.99 C 595.87 542.60 592.93 541.50 592.98 539.04 C 593.21 529.65 594.89 520.32 594.80 510.91 C 592.42 522.33 589.61 533.66 587.06 545.04 C 586.54 547.06 586.03 549.88 583.50 550.18 C 576.04 551.35 568.52 552.22 561.01 552.99 C 558.73 553.55 556.43 551.39 556.94 549.08 C 558.28 533.50 560.42 517.98 561.70 502.40 C 558.64 514.91 556.44 527.64 552.87 540.02 C 540.33 542.37 527.57 543.37 514.94 545.25 C 512.54 545.41 509.65 546.42 507.65 544.56 C 506.02 542.67 507.56 540.23 507.84 538.13 C 499.58 540.30 491.32 542.52 483.02 544.52 C 480.69 545.48 477.58 543.66 478.10 540.98 C 478.48 536.62 479.61 532.37 480.30 528.05 C 468.21 533.58 455.97 538.76 443.65 543.76 C 441.90 544.37 439.69 545.46 438.08 543.96 C 435.79 542.02 437.46 538.70 437.53 536.23 C 426.84 539.10 416.00 541.41 405.26 544.13 C 403.23 544.51 400.72 545.44 399.06 543.67 C 397.61 541.74 398.56 539.23 398.76 537.08 C 401.05 524.17 403.08 511.22 405.37 498.31 C 404.06 498.59 402.75 498.87 401.45 499.16 C 399.39 511.28 398.54 523.57 396.55 535.68 C 390.52 537.99 384.09 538.96 377.88 540.61 C 371.91 541.89 366.06 543.71 360.04 544.70 C 357.53 545.12 355.71 542.47 356.42 540.17 C 361.52 508.82 366.93 477.52 372.15 446.19 C 368.26 446.47 364.37 446.76 360.49 447.10 C 354.34 473.93 349.19 501.03 346.29 528.43 C 345.86 530.82 346.03 533.54 344.53 535.59 C 343.15 536.74 341.28 537.00 339.61 537.49 C 330.01 539.72 320.47 542.17 310.89 544.43 C 308.95 545.04 306.62 544.80 305.54 542.86 C 305.13 540.17 305.91 537.50 306.30 534.86 C 311.14 507.32 315.81 479.75 320.62 452.21 C 315.72 452.93 310.86 454.06 305.91 454.42 C 303.54 454.38 302.75 451.76 302.71 449.81 C 302.06 438.52 301.28 427.24 300.65 415.95 C 300.27 413.79 301.44 411.29 303.88 411.30 C 328.91 408.29 354.00 405.68 379.05 402.76 C 381.09 402.75 383.81 401.72 385.24 403.75 C 386.17 405.31 385.85 407.29 386.14 409.04 C 396.44 407.40 406.71 405.49 417.05 404.07 C 421.33 403.72 421.10 408.78 420.04 411.58 C 421.70 410.45 423.56 409.64 425.57 409.41 C 435.74 407.78 445.92 406.13 456.08 404.40 C 457.99 404.13 460.18 403.64 461.84 404.98 C 462.97 406.31 462.52 408.20 462.82 409.79 C 473.54 407.83 484.26 405.89 495.02 404.12 C 497.78 403.18 500.20 406.45 499.14 408.98 C 493.09 433.88 487.08 458.84 482.70 484.11 C 484.45 483.26 486.21 482.43 487.97 481.60 C 491.94 459.24 495.83 436.87 499.76 414.50 C 500.06 412.58 500.85 410.26 503.12 410.02 C 513.06 407.94 523.15 406.53 533.13 404.58 C 535.62 404.15 539.11 403.14 540.47 406.13 C 540.82 410.05 539.10 413.82 538.39 417.63 C 532.17 444.11 525.92 470.65 522.00 497.58 C 530.38 471.83 537.00 445.53 542.61 419.04 C 543.19 416.70 543.49 413.22 546.51 412.86 C 560.61 410.44 574.79 408.45 588.91 406.13 C 591.33 405.78 594.58 405.00 595.74 407.91 C 596.10 410.45 595.54 412.99 595.10 415.49 C 596.04 413.29 597.18 410.66 600.02 410.69 C 614.03 408.29 628.06 405.94 642.09 403.64 C 644.74 402.74 647.40 405.25 646.68 407.95 C 643.41 437.00 640.41 466.14 639.78 495.39 C 643.97 468.01 647.79 440.55 651.18 413.07 C 651.56 410.90 654.19 410.62 655.94 410.18 C 672.97 407.18 689.60 400.77 707.11 401.34 C 715.25 401.70 724.50 403.17 729.87 409.97 C 733.74 414.59 733.43 420.90 733.39 426.55 C 734.12 422.08 734.48 417.52 735.71 413.15 C 736.10 410.62 739.03 410.49 741.00 409.96 C 750.64 408.17 760.26 406.31 769.89 404.45 C 771.64 404.30 773.79 403.35 775.24 404.85 C 776.87 406.04 776.28 408.26 776.40 409.99 C 775.91 422.20 776.14 434.43 776.57 446.65 C 778.23 436.13 779.88 425.61 781.51 415.09 C 781.79 412.94 782.46 410.23 785.06 409.98 C 795.12 407.94 805.30 406.46 815.39 404.53 C 817.52 404.31 820.34 403.16 821.88 405.32 C 823.34 406.90 822.21 409.21 821.99 411.04 C 817.73 428.05 813.75 445.14 810.22 462.32 C 815.19 446.68 819.72 430.91 823.84 415.04 C 824.50 412.70 825.07 409.53 828.04 409.26 C 846.02 406.14 864.09 403.48 882.09 400.43 M 657.62 417.11 C 656.39 430.16 654.26 443.10 652.57 456.10 C 648.83 483.53 644.73 510.92 639.95 538.19 C 646.65 538.27 653.39 538.00 660.01 536.84 C 675.44 534.40 689.56 526.45 701.21 516.26 C 709.52 508.85 717.50 499.58 718.94 488.13 C 719.18 483.31 718.96 477.39 714.71 474.25 C 710.48 471.15 705.03 472.09 700.18 471.46 C 697.60 471.04 696.78 467.44 698.72 465.81 C 702.14 462.52 706.17 459.92 709.53 456.54 C 719.76 446.98 727.56 433.37 726.23 418.97 C 725.43 412.02 717.83 409.32 711.82 408.70 C 693.30 406.59 675.55 413.75 657.62 417.11 M 830.89 415.83 C 822.50 447.92 812.51 479.57 801.55 510.87 C 801.05 513.00 798.49 514.63 796.49 513.31 C 794.08 512.10 794.63 509.09 794.95 506.92 C 800.04 474.97 806.74 443.28 814.52 411.88 C 805.81 413.37 797.12 414.93 788.42 416.44 C 784.93 438.30 781.67 460.20 778.05 482.03 C 778.04 486.23 771.07 486.40 771.25 482.10 C 771.51 471.37 770.02 460.71 769.68 450.00 C 769.21 437.24 768.88 424.46 769.36 411.70 C 760.25 413.44 751.15 415.18 742.05 416.90 C 734.65 459.57 727.31 502.26 719.94 544.93 C 728.00 542.69 736.06 540.43 744.12 538.20 C 745.27 527.44 746.40 516.68 747.47 505.91 C 747.74 504.12 747.86 501.55 750.00 501.00 C 751.85 500.29 753.92 501.49 754.40 503.37 C 758.35 514.66 762.18 525.98 766.33 537.20 C 772.90 535.51 779.43 533.66 786.00 531.96 C 788.02 531.46 790.89 530.82 792.18 533.05 C 793.06 535.09 791.81 537.20 791.44 539.22 C 802.09 537.58 812.77 536.09 823.43 534.52 C 824.91 529.59 825.19 524.20 827.59 519.60 C 830.41 517.83 833.87 517.54 837.05 516.76 C 839.20 515.83 841.97 517.63 841.78 520.03 C 841.43 525.92 840.38 531.75 839.78 537.62 C 850.93 535.19 862.09 532.75 873.25 530.30 C 873.09 489.35 874.66 448.26 880.97 407.75 C 864.28 410.47 847.58 413.13 830.89 415.83 M 307.71 417.83 C 308.32 427.52 308.91 437.22 309.49 446.91 C 314.38 446.39 319.16 445.19 324.00 444.36 C 326.63 443.58 329.21 446.20 328.27 448.85 C 323.35 478.14 318.19 507.39 313.15 536.66 C 321.76 534.58 330.35 532.47 338.96 530.41 C 342.14 501.05 347.39 471.93 354.31 443.24 C 354.73 440.56 357.72 440.27 359.90 440.13 C 365.57 439.80 371.24 439.02 376.92 439.11 C 379.83 439.42 380.11 442.76 379.49 445.01 C 374.35 475.57 369.19 506.13 364.08 536.69 C 372.87 534.60 381.65 532.47 390.45 530.39 C 391.52 519.59 392.91 508.82 394.50 498.09 C 394.91 496.29 394.95 493.69 397.16 493.17 C 401.04 491.90 405.08 491.10 409.06 490.15 C 411.84 489.33 413.87 492.58 412.98 495.04 C 410.78 508.94 408.28 522.80 406.02 536.70 C 414.82 534.59 423.61 532.47 432.40 530.37 C 436.58 490.33 445.05 450.86 454.67 411.81 C 445.18 413.34 435.69 414.93 426.20 416.47 C 423.47 432.68 420.70 448.88 417.96 465.09 C 417.64 466.68 417.27 468.79 415.41 469.25 C 411.34 470.58 407.17 471.76 402.92 472.26 C 400.26 472.33 399.11 469.15 400.02 466.97 C 403.89 448.50 408.19 430.11 412.74 411.79 C 402.57 413.32 392.46 415.39 382.25 416.61 C 378.52 416.78 378.79 412.41 378.73 409.84 C 355.05 412.52 331.38 415.14 307.71 417.83 M 465.34 416.44 C 458.47 456.20 451.68 495.97 444.81 535.72 C 454.90 531.58 464.96 527.36 474.87 522.79 C 478.48 521.11 481.96 519.11 485.80 517.98 C 486.82 519.16 488.74 520.11 488.42 521.97 C 487.94 526.89 486.71 531.70 485.93 536.57 C 493.99 534.49 502.06 532.45 510.11 530.33 C 514.60 490.35 523.22 450.97 532.56 411.88 C 523.90 413.36 515.26 414.94 506.61 416.42 C 502.64 438.63 498.79 460.86 494.89 483.07 C 494.68 484.77 493.94 486.48 492.26 487.18 C 488.09 489.39 483.87 491.53 479.53 493.40 C 476.80 494.81 473.71 491.85 474.75 489.02 C 479.15 463.09 484.92 437.41 491.27 411.89 C 482.62 413.38 473.98 414.92 465.34 416.44 M 602.21 417.42 C 597.98 436.52 593.97 455.68 589.53 474.73 C 588.61 478.97 581.77 477.27 582.91 473.05 C 584.67 453.13 586.69 433.23 588.58 413.33 C 575.63 415.32 562.69 417.38 549.73 419.36 C 541.44 459.76 529.80 499.42 515.48 538.08 C 526.13 536.71 536.78 535.38 547.43 533.98 C 554.30 503.28 561.26 472.60 568.13 441.90 C 568.45 439.94 569.52 437.37 571.97 437.70 C 574.21 437.50 575.72 439.93 575.28 441.96 C 571.68 476.53 567.87 511.07 564.24 545.64 C 569.57 545.00 574.90 544.34 580.23 543.63 C 586.54 516.11 592.90 488.59 599.34 461.09 C 599.60 458.72 602.45 457.14 604.53 458.48 C 606.44 459.59 606.24 462.06 606.09 463.96 C 604.07 487.47 602.18 510.99 600.17 534.50 C 610.94 532.74 621.71 530.89 632.48 529.15 C 631.97 489.73 634.60 450.33 639.33 411.21 C 626.96 413.27 614.59 415.37 602.21 417.42 M 901.92 416.43 C 895.02 456.48 888.21 496.54 881.35 536.60 C 889.37 534.53 897.39 532.46 905.42 530.42 C 909.87 490.39 918.50 450.97 928.02 411.89 C 919.31 413.35 910.62 414.94 901.92 416.43 M 938.65 416.45 C 931.79 456.51 924.94 496.56 918.10 536.62 C 936.81 532.01 955.69 527.86 974.87 525.85 C 975.57 516.22 976.35 506.59 977.10 496.97 C 968.05 498.26 959.05 499.97 949.97 500.98 C 947.39 501.23 945.86 498.31 946.64 496.07 C 951.70 467.81 957.92 439.76 964.74 411.87 C 956.04 413.39 947.34 414.92 938.65 416.45 M 418.79 415.75 C 415.20 431.89 411.13 447.93 407.75 464.12 C 408.88 463.82 410.02 463.52 411.16 463.22 C 413.56 447.38 417.00 431.67 418.79 415.75 M 710.61 465.09 C 716.79 466.40 722.27 470.30 724.75 476.24 C 726.98 461.95 729.67 447.73 732.00 433.46 C 728.51 446.02 720.35 456.66 710.61 465.09 M 922.29 466.74 C 921.38 467.69 921.35 469.49 922.26 470.47 C 923.78 470.43 923.82 466.76 922.29 466.74 M 448.75 469.20 C 446.49 482.88 443.51 496.48 442.21 510.31 C 444.04 496.55 447.26 483.00 448.75 469.20 M 921.76 470.93 C 919.16 486.70 915.68 502.36 914.24 518.30 C 916.37 502.45 920.08 486.83 921.76 470.93 Z" />
<path fill="#000000" opacity="1.00" d=" M 689.50 438.65 C 692.83 438.29 697.30 437.26 699.66 440.38 C 701.57 442.94 699.83 446.10 698.53 448.51 C 694.68 455.08 689.70 461.11 683.57 465.66 C 681.15 467.94 676.80 465.11 678.12 461.97 C 679.54 455.45 681.21 448.97 682.78 442.49 C 683.43 439.44 687.02 439.21 689.50 438.65 M 689.05 445.90 C 688.62 447.92 688.17 449.92 687.77 451.95 C 689.38 449.78 690.90 447.54 692.39 445.28 C 691.27 445.48 690.16 445.69 689.05 445.90 Z" />
<path fill="#000000" opacity="1.00" d=" M 844.35 452.49 C 846.62 450.90 850.14 453.23 849.47 455.97 C 848.24 467.41 846.60 478.80 845.26 490.23 C 844.92 492.60 844.84 495.95 841.90 496.56 C 839.30 497.24 835.62 499.29 833.54 496.56 C 832.28 495.14 833.20 493.22 833.45 491.62 C 836.19 480.72 838.95 469.82 841.62 458.89 C 842.33 456.74 842.38 453.96 844.35 452.49 Z" />
<path fill="#000000" opacity="1.00" d=" M 680.50 485.66 C 685.46 484.91 690.81 483.50 695.66 485.44 C 699.41 487.43 698.72 492.57 696.61 495.54 C 692.87 500.78 686.86 503.67 681.11 506.13 C 678.20 507.10 675.20 509.11 672.05 508.24 C 669.65 506.95 670.36 504.00 670.68 501.82 C 671.61 497.38 672.01 492.78 673.55 488.50 C 675.04 486.30 678.16 486.34 680.50 485.66 M 679.39 493.07 C 679.01 495.31 678.63 497.55 678.27 499.79 C 683.03 497.83 687.81 495.49 691.15 491.43 C 687.17 491.53 683.26 492.24 679.39 493.07 Z" />
</g>
<g id="#ffc000ff">
<path fill="#ffc000" opacity="1.00" d=" M 820.70 194.61 C 838.39 192.05 856.07 189.41 873.76 186.83 C 873.14 195.52 872.49 204.21 871.91 212.91 C 862.05 214.01 852.17 214.99 842.39 216.64 C 839.71 216.95 839.21 219.93 838.64 222.04 C 837.23 227.96 835.76 233.90 835.02 239.96 C 834.57 242.18 836.88 244.06 839.00 243.48 C 847.16 242.12 855.20 240.08 863.32 238.45 C 862.94 244.26 862.54 250.08 862.20 255.90 C 852.78 257.64 843.33 259.31 834.00 261.49 C 832.23 261.88 830.20 262.69 829.97 264.75 C 828.93 269.46 828.06 274.23 827.40 279.01 C 826.89 281.64 829.75 283.35 832.07 282.70 C 841.54 281.51 850.97 279.93 860.43 278.64 C 859.83 287.37 859.22 296.09 858.55 304.82 C 838.96 306.65 819.73 311.04 800.63 315.60 C 800.72 312.17 803.36 307.50 799.94 304.93 C 796.68 304.44 793.41 305.15 790.19 305.55 C 773.88 307.69 757.84 311.48 741.93 315.59 C 746.92 286.74 751.98 257.90 756.94 229.05 C 757.69 226.80 756.62 223.78 753.94 223.72 C 752.13 223.40 751.10 224.92 750.22 226.20 C 739.35 242.82 723.31 255.18 707.00 266.10 C 704.86 267.74 701.59 268.87 701.24 271.92 C 699.00 284.45 697.03 297.04 695.80 309.71 C 688.81 311.63 681.83 313.55 674.85 315.49 C 681.94 275.61 690.15 235.91 695.88 195.80 C 709.26 191.94 722.97 188.64 736.95 188.27 C 742.72 188.31 749.04 188.47 753.96 191.87 C 756.29 193.41 757.60 197.25 760.91 196.62 C 769.23 195.28 777.49 193.54 785.78 192.06 C 778.51 220.44 772.26 249.08 767.31 277.96 C 766.46 280.35 768.33 283.35 771.04 282.74 C 780.20 281.70 789.27 279.98 798.40 278.67 C 798.07 283.82 797.37 288.95 797.27 294.10 C 797.05 296.75 800.82 298.68 802.71 296.72 C 803.98 295.92 804.06 294.24 804.42 292.93 C 809.79 260.15 815.30 227.39 820.70 194.61 M 722.24 216.31 C 718.89 217.36 714.62 217.46 712.15 220.13 C 709.87 226.89 708.65 234.01 707.44 241.03 C 706.44 244.00 710.23 246.44 712.67 244.71 C 719.13 241.51 725.37 237.62 730.48 232.48 C 733.49 229.12 737.22 224.94 736.17 220.07 C 734.08 214.46 726.93 215.28 722.24 216.31 Z" />
<path fill="#ffc000" opacity="1.00" d=" M 513.85 195.68 C 529.75 193.05 545.65 190.39 561.55 187.74 C 556.00 222.21 554.20 257.16 553.74 292.03 C 553.12 294.94 555.75 297.73 558.70 296.60 C 561.44 294.19 561.89 290.30 563.13 287.05 C 572.83 258.33 580.65 228.99 586.79 199.31 C 598.84 197.34 610.88 195.36 622.93 193.43 C 621.12 213.98 618.91 234.51 617.28 255.07 C 616.91 258.98 623.29 259.90 623.95 255.95 C 629.51 236.44 634.81 216.85 640.26 197.31 C 651.77 195.32 663.27 193.30 674.78 191.30 C 670.12 230.10 667.43 269.16 667.88 308.25 C 658.13 309.99 648.37 311.70 638.61 313.40 C 640.61 288.91 642.68 264.43 644.59 239.94 C 645.06 237.74 643.45 235.29 641.07 235.45 C 638.80 235.45 637.85 237.71 637.40 239.57 C 629.92 267.36 622.40 295.15 614.93 322.94 C 610.58 323.53 606.24 324.13 601.90 324.70 C 605.65 289.45 609.49 254.20 613.15 218.93 C 613.89 216.22 610.51 213.23 608.10 215.06 C 606.57 215.75 606.36 217.59 605.89 218.99 C 597.79 250.35 589.58 281.69 581.48 313.05 C 571.83 314.42 562.15 315.61 552.51 317.04 C 552.92 314.83 553.44 311.96 550.95 310.78 C 548.59 310.56 546.30 311.20 544.03 311.70 C 537.12 313.37 530.19 314.94 523.28 316.57 C 523.88 310.66 524.88 304.80 525.28 298.88 C 525.60 297.00 523.92 295.01 521.99 295.25 C 518.26 295.54 514.62 296.52 510.96 297.20 C 509.41 297.61 507.29 297.82 506.76 299.64 C 505.21 304.20 504.46 308.99 503.25 313.65 C 493.41 315.17 483.57 316.67 473.72 318.14 C 489.26 278.07 502.78 237.22 513.85 195.68 M 531.39 203.40 C 529.61 204.15 529.38 206.26 528.89 207.88 C 523.63 229.94 518.17 251.95 512.90 274.02 C 512.21 276.01 512.56 278.91 514.98 279.44 C 518.64 279.51 522.29 278.59 525.81 277.63 C 528.18 276.99 528.27 274.14 528.60 272.16 C 531.13 250.42 534.00 228.70 536.42 206.95 C 536.95 204.25 533.66 202.22 531.39 203.40 Z" />
<path fill="#ffc000" opacity="1.00" d=" M 464.45 191.48 C 468.42 189.85 472.91 188.59 477.18 189.73 C 480.98 190.76 483.29 194.45 484.23 198.05 C 486.49 206.04 485.92 214.46 485.18 222.63 C 478.29 225.27 471.39 227.87 464.52 230.54 C 463.26 228.00 461.99 224.87 458.96 224.05 C 453.49 222.74 448.01 225.53 443.99 229.06 C 439.42 233.08 435.50 238.71 435.76 245.04 C 436.00 249.23 440.00 252.16 444.01 252.21 C 454.11 252.76 463.97 248.36 474.10 250.10 C 477.59 250.66 481.35 252.50 482.57 256.07 C 485.07 264.62 482.54 273.75 478.42 281.38 C 470.08 296.81 456.43 308.99 440.87 316.85 C 432.04 321.27 421.42 321.27 412.51 317.09 C 416.15 308.62 420.08 300.26 423.96 291.90 C 433.87 296.49 445.08 293.16 454.05 287.99 C 457.98 285.70 462.21 281.99 461.76 276.97 C 461.70 272.90 457.72 270.17 453.97 269.88 C 442.39 268.70 431.37 273.99 419.84 273.72 C 414.53 273.74 409.33 269.61 409.19 264.10 C 409.17 256.20 412.09 248.60 415.72 241.70 C 422.26 229.77 431.03 219.22 440.48 209.51 C 447.59 202.47 455.18 195.53 464.45 191.48 Z" />
</g>
<g id="#00b0f0ff">
<path fill="#00b0f0" opacity="1.00" d=" M 657.62 417.11 C 675.55 413.75 693.30 406.59 711.82 408.70 C 717.83 409.32 725.43 412.02 726.23 418.97 C 727.56 433.37 719.76 446.98 709.53 456.54 C 706.17 459.92 702.14 462.52 698.72 465.81 C 696.78 467.44 697.60 471.04 700.18 471.46 C 705.03 472.09 710.48 471.15 714.71 474.25 C 718.96 477.39 719.18 483.31 718.94 488.13 C 717.50 499.58 709.52 508.85 701.21 516.26 C 689.56 526.45 675.44 534.40 660.01 536.84 C 653.39 538.00 646.65 538.27 639.95 538.19 C 644.73 510.92 648.83 483.53 652.57 456.10 C 654.26 443.10 656.39 430.16 657.62 417.11 M 689.50 438.65 C 687.02 439.21 683.43 439.44 682.78 442.49 C 681.21 448.97 679.54 455.45 678.12 461.97 C 676.80 465.11 681.15 467.94 683.57 465.66 C 689.70 461.11 694.68 455.08 698.53 448.51 C 699.83 446.10 701.57 442.94 699.66 440.38 C 697.30 437.26 692.83 438.29 689.50 438.65 M 680.50 485.66 C 678.16 486.34 675.04 486.30 673.55 488.50 C 672.01 492.78 671.61 497.38 670.68 501.82 C 670.36 504.00 669.65 506.95 672.05 508.24 C 675.20 509.11 678.20 507.10 681.11 506.13 C 686.86 503.67 692.87 500.78 696.61 495.54 C 698.72 492.57 699.41 487.43 695.66 485.44 C 690.81 483.50 685.46 484.91 680.50 485.66 Z" />
<path fill="#00b0f0" opacity="1.00" d=" M 830.89 415.83 C 847.58 413.13 864.28 410.47 880.97 407.75 C 874.66 448.26 873.09 489.35 873.25 530.30 C 862.09 532.75 850.93 535.19 839.78 537.62 C 840.38 531.75 841.43 525.92 841.78 520.03 C 841.97 517.63 839.20 515.83 837.05 516.76 C 833.87 517.54 830.41 517.83 827.59 519.60 C 825.19 524.20 824.91 529.59 823.43 534.52 C 812.77 536.09 802.09 537.58 791.44 539.22 C 791.81 537.20 793.06 535.09 792.18 533.05 C 790.89 530.82 788.02 531.46 786.00 531.96 C 779.43 533.66 772.90 535.51 766.33 537.20 C 762.18 525.98 758.35 514.66 754.40 503.37 C 753.92 501.49 751.85 500.29 750.00 501.00 C 747.86 501.55 747.74 504.12 747.47 505.91 C 746.40 516.68 745.27 527.44 744.12 538.20 C 736.06 540.43 728.00 542.69 719.94 544.93 C 727.31 502.26 734.65 459.57 742.05 416.90 C 751.15 415.18 760.25 413.44 769.36 411.70 C 768.88 424.46 769.21 437.24 769.68 450.00 C 770.02 460.71 771.51 471.37 771.25 482.10 C 771.07 486.40 778.04 486.23 778.05 482.03 C 781.67 460.20 784.93 438.30 788.42 416.44 C 797.12 414.93 805.81 413.37 814.52 411.88 C 806.74 443.28 800.04 474.97 794.95 506.92 C 794.63 509.09 794.08 512.10 796.49 513.31 C 798.49 514.63 801.05 513.00 801.55 510.87 C 812.51 479.57 822.50 447.92 830.89 415.83 M 844.35 452.49 C 842.38 453.96 842.33 456.74 841.62 458.89 C 838.95 469.82 836.19 480.72 833.45 491.62 C 833.20 493.22 832.28 495.14 833.54 496.56 C 835.62 499.29 839.30 497.24 841.90 496.56 C 844.84 495.95 844.92 492.60 845.26 490.23 C 846.60 478.80 848.24 467.41 849.47 455.97 C 850.14 453.23 846.62 450.90 844.35 452.49 Z" />
<path fill="#00b0f0" opacity="1.00" d=" M 307.71 417.83 C 331.38 415.14 355.05 412.52 378.73 409.84 C 378.79 412.41 378.52 416.78 382.25 416.61 C 392.46 415.39 402.57 413.32 412.74 411.79 C 408.19 430.11 403.89 448.50 400.02 466.97 C 399.11 469.15 400.26 472.33 402.92 472.26 C 407.17 471.76 411.34 470.58 415.41 469.25 C 417.27 468.79 417.64 466.68 417.96 465.09 C 420.70 448.88 423.47 432.68 426.20 416.47 C 435.69 414.93 445.18 413.34 454.67 411.81 C 445.05 450.86 436.58 490.33 432.40 530.37 C 423.61 532.47 414.82 534.59 406.02 536.70 C 408.28 522.80 410.78 508.94 412.98 495.04 C 413.87 492.58 411.84 489.33 409.06 490.15 C 405.08 491.10 401.04 491.90 397.16 493.17 C 394.95 493.69 394.91 496.29 394.50 498.09 C 392.91 508.82 391.52 519.59 390.45 530.39 C 381.65 532.47 372.87 534.60 364.08 536.69 C 369.19 506.13 374.35 475.57 379.49 445.01 C 380.11 442.76 379.83 439.42 376.92 439.11 C 371.24 439.02 365.57 439.80 359.90 440.13 C 357.72 440.27 354.73 440.56 354.31 443.24 C 347.39 471.93 342.14 501.05 338.96 530.41 C 330.35 532.47 321.76 534.58 313.15 536.66 C 318.19 507.39 323.35 478.14 328.27 448.85 C 329.21 446.20 326.63 443.58 324.00 444.36 C 319.16 445.19 314.38 446.39 309.49 446.91 C 308.91 437.22 308.32 427.52 307.71 417.83 Z" />
<path fill="#00b0f0" opacity="1.00" d=" M 465.34 416.44 C 473.98 414.92 482.62 413.38 491.27 411.89 C 484.92 437.41 479.15 463.09 474.75 489.02 C 473.71 491.85 476.80 494.81 479.53 493.40 C 483.87 491.53 488.09 489.39 492.26 487.18 C 493.94 486.48 494.68 484.77 494.89 483.07 C 498.79 460.86 502.64 438.63 506.61 416.42 C 515.26 414.94 523.90 413.36 532.56 411.88 C 523.22 450.97 514.60 490.35 510.11 530.33 C 502.06 532.45 493.99 534.49 485.93 536.57 C 486.71 531.70 487.94 526.89 488.42 521.97 C 488.74 520.11 486.82 519.16 485.80 517.98 C 481.96 519.11 478.48 521.11 474.87 522.79 C 464.96 527.36 454.90 531.58 444.81 535.72 C 451.68 495.97 458.47 456.20 465.34 416.44 Z" />
<path fill="#00b0f0" opacity="1.00" d=" M 602.21 417.42 C 614.59 415.37 626.96 413.27 639.33 411.21 C 634.60 450.33 631.97 489.73 632.48 529.15 C 621.71 530.89 610.94 532.74 600.17 534.50 C 602.18 510.99 604.07 487.47 606.09 463.96 C 606.24 462.06 606.44 459.59 604.53 458.48 C 602.45 457.14 599.60 458.72 599.34 461.09 C 592.90 488.59 586.54 516.11 580.23 543.63 C 574.90 544.34 569.57 545.00 564.24 545.64 C 567.87 511.07 571.68 476.53 575.28 441.96 C 575.72 439.93 574.21 437.50 571.97 437.70 C 569.52 437.37 568.45 439.94 568.13 441.90 C 561.26 472.60 554.30 503.28 547.43 533.98 C 536.78 535.38 526.13 536.71 515.48 538.08 C 529.80 499.42 541.44 459.76 549.73 419.36 C 562.69 417.38 575.63 415.32 588.58 413.33 C 586.69 433.23 584.67 453.13 582.91 473.05 C 581.77 477.27 588.61 478.97 589.53 474.73 C 593.97 455.68 597.98 436.52 602.21 417.42 Z" />
<path fill="#00b0f0" opacity="1.00" d=" M 901.92 416.43 C 910.62 414.94 919.31 413.35 928.02 411.89 C 918.50 450.97 909.87 490.39 905.42 530.42 C 897.39 532.46 889.37 534.53 881.35 536.60 C 888.21 496.54 895.02 456.48 901.92 416.43 Z" />
<path fill="#00b0f0" opacity="1.00" d=" M 938.65 416.45 C 947.34 414.92 956.04 413.39 964.74 411.87 C 957.92 439.76 951.70 467.81 946.64 496.07 C 945.86 498.31 947.39 501.23 949.97 500.98 C 959.05 499.97 968.05 498.26 977.10 496.97 C 976.35 506.59 975.57 516.22 974.87 525.85 C 955.69 527.86 936.81 532.01 918.10 536.62 C 924.94 496.56 931.79 456.51 938.65 416.45 Z" />
</g>
<g id="#330015ff">
<path fill="#330015" opacity="1.00" d=" M 922.29 466.74 C 923.82 466.76 923.78 470.43 922.26 470.47 C 921.35 469.49 921.38 467.69 922.29 466.74 Z" />
</g>
</svg>
